<svg version="1.1" xmlns="http://www.w3.org/2000/svg" xmlns:xlink="http://www.w3.org/1999/xlink" width="51.03563" height="51.03563" viewBox="0,0,51.03563,51.03563"><g transform="translate(-214.48218,-154.48218)"><g stroke-miterlimit="10"><path d="M214.48219,205.51782v-51.03563h51.03563v51.03563z" fill-opacity="0.01176" fill="#30bf51" stroke="#000000" stroke-width="0" stroke-linecap="butt"/><path d="M217.44796,178.3539c0.14486,-2.61264 5.39231,-11.46775 7.02217,-13.08019c1.588,-1.57104 3.86822,-3.43982 6.71197,-3.85949c2.89598,-0.42738 6.36335,0.60891 8.81791,0.60891c1.9264,0 4.72359,-1.99092 6.89466,-1.79236c3.40828,0.31172 6.13314,3.09666 8.09911,5.09425c3.1517,3.20238 2.74831,9.59207 2.74831,14.4402c0,6.56701 -2.39388,14.53125 -7.69692,17.59896c-2.60966,1.50964 -6.81349,0.14312 -10.04516,0.14312c-4.08653,0 -8.78956,3.43167 -11.7891,1.11008c-2.2913,-1.77342 -5.85188,-5.88502 -6.79995,-9.86243c-0.78676,-3.30066 -4.10707,-7.80299 -3.96301,-10.40106z" fill="#2fbe51" stroke="#000000" stroke-width="2.5" stroke-linecap="butt"/><path d="M241.43232,178.1812c0,-0.9665 0.7835,-1.75 1.75,-1.75c0.9665,0 1.75,0.7835 1.75,1.75c0,0.9665 -0.7835,1.75 -1.75,1.75c-0.9665,0 -1.75,-0.7835 -1.75,-1.75z" fill="#000000" stroke="none" stroke-width="0.5" stroke-linecap="butt"/><path d="M250.78722,178.1812c0,-0.9665 0.7835,-1.75 1.75,-1.75c0.9665,0 1.75,0.7835 1.75,1.75c0,0.9665 -0.7835,1.75 -1.75,1.75c-0.9665,0 -1.75,-0.7835 -1.75,-1.75z" fill="#000000" stroke="none" stroke-width="0.5" stroke-linecap="butt"/><path d="M250.08584,186.66769c0,0 -1.66874,0.59084 -3.54033,0.61127c-1.37142,0.01497 -3.2459,-0.55327 -3.2459,-0.55327" fill="none" stroke="#000000" stroke-width="1.5" stroke-linecap="round"/><path d="M251.30827,184.2418c0.41421,0 0.75,0.33579 0.75,0.75c0,0.41421 -0.33579,0.75 -0.75,0.75c-0.02219,0 -0.04416,-0.00096 -0.06586,-0.00285c-0.07607,0.33361 -0.37458,0.58256 -0.73124,0.58256c-0.41421,0 -0.75,-0.33579 -0.75,-0.75c0,-0.41421 0.33579,-0.75 0.75,-0.75c0.02219,0 0.04416,0.00096 0.06586,0.00285c0.07607,-0.33361 0.37458,-0.58256 0.73124,-0.58256z" fill="#c30000" stroke="none" stroke-width="0.5" stroke-linecap="butt"/><path d="M244.8535,184.81621c0.55057,-0.16135 0.71192,0.38922 0.71192,0.38922l0.18772,0.64055c0,0 0.12464,0.4253 -0.21898,0.63785c-0.0301,0.14323 -0.12253,0.29544 -0.35556,0.38535c-0.3596,0.13874 -0.57082,-0.05731 -0.67073,-0.20094c-0.31264,-0.23302 -0.60578,-0.49447 -0.8723,-0.7786c0,0 -0.39054,-0.42029 0.02975,-0.81082c0.29621,-0.27525 0.57765,-0.14773 0.718,-0.04846c0.04814,-0.04116 0.10398,-0.07499 0.16643,-0.09909c0.03932,-0.01517 0.07928,-0.02572 0.11929,-0.03191c0.05019,-0.03316 0.11099,-0.06162 0.18446,-0.08316z" fill="#c30000" stroke="none" stroke-width="0.5" stroke-linecap="butt"/><path d="M250.33496,188.92422c-0.18078,0.55147 -0.73224,0.37069 -0.73224,0.37069l-0.50824,-0.19877c-0.17511,-0.13113 -0.35023,-0.26225 -0.52534,-0.39338c0,0 -0.46454,-0.34785 -0.11668,-0.81239c0.34785,-0.46454 0.81239,-0.11668 0.81239,-0.11668c0.17511,0.13113 0.35023,0.26225 0.52534,0.39338l0.17409,0.02491c0,0 0.55147,0.18078 0.37069,0.73224z" fill="#c30000" stroke="none" stroke-width="0.5" stroke-linecap="butt"/><path d="M245.16867,188.16551c0,-0.41421 0.33579,-0.75 0.75,-0.75c0.41421,0 0.75,0.33579 0.75,0.75c0,0.41421 -0.33579,0.75 -0.75,0.75c-0.41421,0 -0.75,-0.33579 -0.75,-0.75z" fill="#c30000" stroke="none" stroke-width="0.5" stroke-linecap="butt"/><path d="M229.15056,175.1046c-0.41602,-0.62404 0.20801,-1.04006 0.20801,-1.04006l0.18257,-0.07927c1.0713,-1.32223 1.66782,-2.52757 0.46958,-3.99362c0,0 -0.46851,-0.58565 0.11714,-1.05417c0.58565,-0.46852 1.05417,0.11713 1.05417,0.11713c1.62893,2.06987 1.02859,3.97556 -0.46959,5.8677l-0.52181,0.39031c0,0 -0.62404,0.41603 -1.04006,-0.20801z" fill="#218b3a" stroke="none" stroke-width="0.5" stroke-linecap="butt"/><path d="M232.08897,183.59393c-0.33541,0.67082 -1.00623,0.33541 -1.00623,0.33541l-0.31541,-0.16418c-2.21605,-1.47994 -3.66818,-3.11139 -4.52176,-5.66971c0,0 -0.23717,-0.71152 0.47434,-0.94869c0.71151,-0.23717 0.94868,0.47434 0.94868,0.47434c0.74558,2.23894 1.98097,3.59854 3.93079,4.89598l0.15418,0.07062c0,0 0.67082,0.33541 0.33541,1.00623z" fill="#218b3a" stroke="none" stroke-width="0.5" stroke-linecap="butt"/><path d="M237.75757,173.56022c-0.75,0 -0.75,-0.75 -0.75,-0.75v-0.70438c0.00489,-0.48404 -0.06847,-0.97338 -0.20594,-1.43751c0,0 -0.20604,-0.72115 0.51511,-0.92719c0.72115,-0.20604 0.92719,0.51511 0.92719,0.51511c0.16655,0.60008 0.25877,1.22684 0.26365,1.84959v0.70438c0,0 0,0.75 -0.75,0.75z" fill="#218b3a" stroke="none" stroke-width="0.5" stroke-linecap="butt"/><path d="M237.92059,190.30232c0,0.75 -0.75,0.75 -0.75,0.75h-0.11739c-1.59022,0 -2.5119,0.05394 -3.62848,-1.20904c0,0 -0.48014,-0.57617 0.09603,-1.05631c0.57617,-0.48014 1.0563,0.09603 1.0563,0.09603c0.68397,0.90533 1.39961,0.66931 2.47615,0.66931h0.11739c0,0 0.75,0 0.75,0.75z" fill="#218b3a" stroke="none" stroke-width="0.5" stroke-linecap="butt"/><path d="M251.96256,171.21229c-0.75,0 -0.75,-0.75 -0.75,-0.75v-0.23479c0.0017,-0.90928 -0.11605,-1.78887 -0.11739,-2.70012c0,0 0,-0.75 0.75,-0.75c0.75,0 0.75,0.75 0.75,0.75c-0.00148,0.91054 0.11587,1.78987 0.11739,2.70012v0.23479c0,0 0,0.75 -0.75,0.75z" fill="#218b3a" stroke="none" stroke-width="0.5" stroke-linecap="butt"/><path d="M246.26678,194.70674c-0.53033,-0.53033 0,-1.06066 0,-1.06066l0.51041,-0.47305c1.33332,-0.74041 2.37976,-0.74663 3.86963,-0.56261c0,0 0.74421,0.09303 0.65118,0.83724c-0.09303,0.74421 -0.83723,0.65118 -0.83723,0.65118c-1.15239,-0.14594 -1.92737,-0.2241 -2.93938,0.37656l-0.19396,0.23134c0,0 -0.53033,0.53033 -1.06066,0z" fill="#218b3a" stroke="none" stroke-width="0.5" stroke-linecap="butt"/></g></g></svg>